# xmcd
#
# Track frame offsets:
#	150
#	11428
#	21244
#	47604
#	61518
#	75344
#	83058
#	95903
#	108422
#	121686
#	136492
#
# Disc length: 2063 seconds
#
# Revision: 1
# Processed by: cddbd v1.5.1PL0 Copyright (c) Steve Scherf et al.
# Submitted via: EasyCDDAExtractor 7.0.5.4
#
DISCID=7a080d0b
DTITLE=Lena Horne - More
DYEAR=1998
DGENRE=
TTITLE0=Bill Bailey
TTITLE1=Dark Eyes
TTITLE2=Frankie and Johnny
TTITLE3=Hesitatin' Blues
TTITLE4=Beale Street Blues
TTITLE5=More
TTITLE6=Rainy Day
TTITLE7=Sometimes I Feel Like A Motherless Child
TTITLE8=Nobody Knows the Trouble I've Seen
TTITLE9=When the Saints Go Marching In
TTITLE10=Unlucky Women
EXTD=
EXTT0=
EXTT1=
EXTT2=
EXTT3=
EXTT4=
EXTT5=
EXTT6=
EXTT7=
EXTT8=
EXTT9=
EXTT10=
PLAYORDER=
